<?xml version="1.0" standalone="no"?><!DOCTYPE svg PUBLIC "-//W3C//DTD SVG 1.1//EN" "http://www.w3.org/Graphics/SVG/1.1/DTD/svg11.dtd"><svg t="1650464357674" class="icon" viewBox="0 0 1024 1024" version="1.1" xmlns="http://www.w3.org/2000/svg" p-id="1877" xmlns:xlink="http://www.w3.org/1999/xlink" width="200" height="200"><defs><style type="text/css">@font-face { font-family: feedback-iconfont; src: url("//at.alicdn.com/t/font_1031158_u69w8yhxdu.woff2?t=1630033759944") format("woff2"), url("//at.alicdn.com/t/font_1031158_u69w8yhxdu.woff?t=1630033759944") format("woff"), url("//at.alicdn.com/t/font_1031158_u69w8yhxdu.ttf?t=1630033759944") format("truetype"); }
</style></defs><path d="M746.666667 332.8V405.333333h-40.533334v-36.266666H430.933333V405.333333h-38.4v-72.533333H554.666667c-4.266667-10.666667-10.666667-25.6-17.066667-36.266667l40.533333-10.666666c8.533333 14.933333 17.066667 34.133333 21.333334 46.933333H597.333333h149.333334z m-155.733334 89.6h132.266667v202.666667H682.666667v-19.2h-93.866667v74.666666h-40.533333v-74.666666h-93.866667v21.333333h-38.4v-204.8h132.266667V384h40.533333v38.4z m-134.4 34.133333v40.533334h93.866667v-40.533334h-93.866667z m91.733334 115.2v-40.533333h-93.866667v40.533333h93.866667z m42.666666-115.2v40.533334H682.666667v-40.533334h-91.733334z m91.733334 115.2v-40.533333h-93.866667v40.533333H682.666667z" fill="#1890FF" p-id="1878"></path><path d="M561.066667 859.733333c-108.8 0-211.2-46.933333-281.6-130.133333-8.533333-8.533333-6.4-23.466667 2.133333-29.866667 8.533333-8.533333 23.466667-6.4 29.866667 2.133334 61.866667 74.666667 153.6 115.2 249.6 115.2 179.2 0 326.4-147.2 326.4-326.4S740.266667 164.266667 561.066667 164.266667 234.666667 309.333333 234.666667 490.666667c0 12.8-8.533333 21.333333-21.333334 21.333333s-21.333333-8.533333-21.333333-21.333333c0-202.666667 166.4-369.066667 369.066667-369.066667S930.133333 288 930.133333 490.666667s-164.266667 369.066667-369.066666 369.066666z" fill="#1890FF" p-id="1879"></path><path d="M196.266667 505.6c-6.4-8.533333-4.266667-23.466667 4.266666-29.866667l102.4-76.8c8.533333-6.4 23.466667-4.266667 29.866667 4.266667 6.4 8.533333 4.266667 23.466667-4.266667 29.866667l-102.4 76.8c-8.533333 6.4-21.333333 4.266667-29.866666-4.266667z" fill="#1890FF" p-id="1880"></path><path d="M226.133333 509.866667c-8.533333 6.4-23.466667 4.266667-29.866666-4.266667l-76.8-102.4c-6.4-8.533333-4.266667-23.466667 4.266666-29.866667 8.533333-6.4 23.466667-4.266667 29.866667 4.266667l76.8 102.4c6.4 8.533333 6.4 23.466667-4.266667 29.866667z" fill="#1890FF" p-id="1881"></path></svg>