<?xml version="1.0" standalone="no"?><!DOCTYPE svg PUBLIC "-//W3C//DTD SVG 1.1//EN" "http://www.w3.org/Graphics/SVG/1.1/DTD/svg11.dtd"><svg t="1684291787683" class="icon" viewBox="0 0 1024 1024" version="1.1" xmlns="http://www.w3.org/2000/svg" p-id="1464" xmlns:xlink="http://www.w3.org/1999/xlink" width="200" height="200"><path d="M627.2 260.266667H396.8c-49.066667 0-87.466667-38.4-87.466667-87.466667S347.733333 85.333333 396.8 85.333333h230.4c49.066667 0 87.466667 38.4 87.466667 87.466667 0 46.933333-38.4 87.466667-87.466667 87.466667zM396.8 149.333333c-12.8 0-23.466667 10.666667-23.466667 23.466667 0 12.8 10.666667 23.466667 23.466667 23.466667h230.4c12.8 0 23.466667-10.666667 23.466667-23.466667 0-12.8-10.666667-23.466667-23.466667-23.466667H396.8z" fill="#1890ff" p-id="1465"></path><path d="M800 938.666667h-576C147.2 938.666667 85.333333 876.8 85.333333 800V279.466667c0-76.8 61.866667-138.666667 138.666667-138.666667h106.666667c17.066667 0 32 14.933333 32 32s-14.933333 32-32 32h-106.666667C183.466667 204.8 149.333333 236.8 149.333333 279.466667v522.666666c0 40.533333 34.133333 74.666667 74.666667 74.666667h573.866667c40.533333 0 74.666667-34.133333 74.666666-74.666667V279.466667c0-40.533333-34.133333-74.666667-74.666666-74.666667h-106.666667c-17.066667 0-32-14.933333-32-32s14.933333-32 32-32h106.666667c76.8 0 138.666667 61.866667 138.666666 138.666667v522.666666c2.133333 74.666667-59.733333 136.533333-136.533333 136.533334z" fill="#1890ff" p-id="1466"></path><path d="M469.333333 674.133333c-14.933333 0-27.733333-6.4-38.4-14.933333L320 546.133333c-10.666667-14.933333-6.4-34.133333 6.4-44.8 10.666667-8.533333 25.6-8.533333 36.266667 0l106.666666 104.533334 189.866667-189.866667c14.933333-10.666667 34.133333-6.4 44.8 8.533333 8.533333 10.666667 6.4 25.6 0 36.266667l-198.4 198.4c-8.533333 8.533333-21.333333 14.933333-36.266667 14.933333z" fill="#1890ff" p-id="1467"></path></svg>