<?xml version="1.0" standalone="no"?><!DOCTYPE svg PUBLIC "-//W3C//DTD SVG 1.1//EN" "http://www.w3.org/Graphics/SVG/1.1/DTD/svg11.dtd"><svg t="1650464350718" class="icon" viewBox="0 0 1024 1024" version="1.1" xmlns="http://www.w3.org/2000/svg" p-id="1588" xmlns:xlink="http://www.w3.org/1999/xlink" width="200" height="200"><defs><style type="text/css">@font-face { font-family: feedback-iconfont; src: url("//at.alicdn.com/t/font_1031158_u69w8yhxdu.woff2?t=1630033759944") format("woff2"), url("//at.alicdn.com/t/font_1031158_u69w8yhxdu.woff?t=1630033759944") format("woff"), url("//at.alicdn.com/t/font_1031158_u69w8yhxdu.ttf?t=1630033759944") format("truetype"); }
</style></defs><path d="M896 810.666667H405.333333v-170.666667h490.666667c12.8 0 21.333333 8.533333 21.333333 21.333333v128c0 12.8-8.533333 21.333333-21.333333 21.333334z" fill="#FF6060" p-id="1589"></path><path d="M618.666667 384H128c-12.8 0-21.333333-8.533333-21.333333-21.333333v-128c0-12.8 8.533333-21.333333 21.333333-21.333334h490.666667v170.666667z" fill="#1890FF" p-id="1590"></path><path d="M885.333333 279.466667l-256-147.2c-14.933333-8.533333-32 2.133333-32 19.2V448c0 17.066667 17.066667 27.733333 32 19.2l256-147.2c14.933333-10.666667 14.933333-32 0-40.533333z" fill="#1890FF" p-id="1591"></path><path d="M138.666667 744.533333l256 147.2c14.933333 8.533333 32-2.133333 32-19.2V578.133333c0-17.066667-17.066667-27.733333-32-19.2l-256 147.2c-14.933333 8.533333-14.933333 29.866667 0 38.4z" fill="#FF6060" p-id="1592"></path></svg>